<mxfile host="app.diagrams.net" agent="Mozilla/5.0 (Macintosh; Intel Mac OS X 10_15_7) AppleWebKit/537.36 (KHTML, like Gecko) Chrome/123.0.0.0 Safari/537.36 OPR/109.0.0.0" version="24.7.17">
  <diagram id="C5RBs43oDa-KdzZeNtuy" name="Page-1">
    <mxGraphModel dx="9130" dy="8977" grid="1" gridSize="10" guides="1" tooltips="1" connect="1" arrows="1" fold="1" page="1" pageScale="1" pageWidth="827" pageHeight="1169" math="0" shadow="0">
      <root>
        <mxCell id="WIyWlLk6GJQsqaUBKTNV-0" />
        <mxCell id="WIyWlLk6GJQsqaUBKTNV-1" parent="WIyWlLk6GJQsqaUBKTNV-0" />
        <mxCell id="3fczbsxRmoHJEnEu84x_-69" value="choice == 1?" style="html=1;overflow=block;blockSpacing=1;whiteSpace=wrap;rhombus;fontSize=13;spacing=3.8;rounded=1;absoluteArcSize=1;arcSize=9;strokeWidth=NaN;lucidId=eRAhfTVhAbV-;" parent="WIyWlLk6GJQsqaUBKTNV-1" vertex="1">
          <mxGeometry x="431" y="-2028.71" width="150" height="120" as="geometry" />
        </mxCell>
        <mxCell id="3fczbsxRmoHJEnEu84x_-70" value="Call insertContact()" style="html=1;overflow=block;blockSpacing=1;whiteSpace=wrap;fontSize=13;spacing=9;rounded=1;absoluteArcSize=1;arcSize=9;strokeWidth=NaN;lucidId=eRAhY9dSQfNk;" parent="WIyWlLk6GJQsqaUBKTNV-1" vertex="1">
          <mxGeometry x="760" y="-2009.71" width="152" height="81" as="geometry" />
        </mxCell>
        <mxCell id="3fczbsxRmoHJEnEu84x_-71" value="choice == 2?" style="html=1;overflow=block;blockSpacing=1;whiteSpace=wrap;rhombus;fontSize=13;spacing=3.8;rounded=1;absoluteArcSize=1;arcSize=9;strokeWidth=NaN;lucidId=eRAhl8F1_OAq;" parent="WIyWlLk6GJQsqaUBKTNV-1" vertex="1">
          <mxGeometry x="431" y="-1758.71" width="150" height="120" as="geometry" />
        </mxCell>
        <mxCell id="3fczbsxRmoHJEnEu84x_-73" value="choice == 3?" style="html=1;overflow=block;blockSpacing=1;whiteSpace=wrap;rhombus;fontSize=13;spacing=3.8;rounded=1;absoluteArcSize=1;arcSize=9;strokeWidth=NaN;lucidId=eRAh.yVIUzWg;" parent="WIyWlLk6GJQsqaUBKTNV-1" vertex="1">
          <mxGeometry x="431" y="-1486.71" width="150" height="120" as="geometry" />
        </mxCell>
        <mxCell id="3fczbsxRmoHJEnEu84x_-75" value="choice == 4?" style="html=1;overflow=block;blockSpacing=1;whiteSpace=wrap;rhombus;fontSize=13;spacing=3.8;rounded=1;absoluteArcSize=1;arcSize=9;strokeWidth=NaN;lucidId=eRAhEPe~mVj_;" parent="WIyWlLk6GJQsqaUBKTNV-1" vertex="1">
          <mxGeometry x="431" y="-1158.71" width="150" height="120" as="geometry" />
        </mxCell>
        <mxCell id="3fczbsxRmoHJEnEu84x_-77" value="choice == 5?" style="html=1;overflow=block;blockSpacing=1;whiteSpace=wrap;rhombus;fontSize=13;spacing=3.8;rounded=1;absoluteArcSize=1;arcSize=9;strokeWidth=NaN;lucidId=eRAhpsRm34mp;" parent="WIyWlLk6GJQsqaUBKTNV-1" vertex="1">
          <mxGeometry x="426" y="-718.21" width="150" height="120" as="geometry" />
        </mxCell>
        <mxCell id="3fczbsxRmoHJEnEu84x_-79" value="choice == 6?" style="html=1;overflow=block;blockSpacing=1;whiteSpace=wrap;rhombus;fontSize=13;spacing=3.8;rounded=1;absoluteArcSize=1;arcSize=9;strokeWidth=NaN;lucidId=eRAhjaWhayal;" parent="WIyWlLk6GJQsqaUBKTNV-1" vertex="1">
          <mxGeometry x="426" y="-447.21000000000004" width="150" height="120" as="geometry" />
        </mxCell>
        <mxCell id="3fczbsxRmoHJEnEu84x_-80" value="Call sortContacts()" style="html=1;overflow=block;blockSpacing=1;whiteSpace=wrap;fontSize=13;spacing=9;rounded=1;absoluteArcSize=1;arcSize=9;strokeWidth=NaN;lucidId=eRAhJVK5bnUw;" parent="WIyWlLk6GJQsqaUBKTNV-1" vertex="1">
          <mxGeometry x="777" y="-158.71000000000004" width="152" height="122" as="geometry" />
        </mxCell>
        <mxCell id="3fczbsxRmoHJEnEu84x_-82" value="Check if choice != 0" style="html=1;overflow=block;blockSpacing=1;whiteSpace=wrap;fontSize=13;spacing=9;rounded=1;absoluteArcSize=1;arcSize=9;strokeWidth=NaN;lucidId=eRAhwOddQVvl;" parent="WIyWlLk6GJQsqaUBKTNV-1" vertex="1">
          <mxGeometry x="420" y="51.289999999999964" width="152" height="122" as="geometry" />
        </mxCell>
        <mxCell id="3fczbsxRmoHJEnEu84x_-84" value="" style="html=1;jettySize=18;whiteSpace=wrap;fontSize=13;strokeColor=#3a414a;strokeOpacity=100;strokeWidth=0.8;rounded=1;arcSize=12;edgeStyle=orthogonalEdgeStyle;startArrow=none;endArrow=block;endFill=1;exitX=0.5;exitY=1;lucidId=eRAhOswdQQ2I;exitDx=0;exitDy=0;" parent="WIyWlLk6GJQsqaUBKTNV-1" source="3fczbsxRmoHJEnEu84x_-224" target="3fczbsxRmoHJEnEu84x_-127" edge="1">
          <mxGeometry width="100" height="100" relative="1" as="geometry">
            <Array as="points" />
            <mxPoint x="506" y="-3219.2200000000003" as="sourcePoint" />
            <mxPoint x="506.9999999999998" y="-3060.672" as="targetPoint" />
          </mxGeometry>
        </mxCell>
        <mxCell id="3fczbsxRmoHJEnEu84x_-90" value="" style="html=1;jettySize=18;whiteSpace=wrap;fontSize=13;strokeColor=#3a414a;strokeOpacity=100;strokeWidth=0.8;rounded=1;arcSize=12;edgeStyle=orthogonalEdgeStyle;startArrow=none;endArrow=block;endFill=1;exitX=0.5;exitY=1.006;exitPerimeter=0;entryX=0.5;entryY=-0.006;entryPerimeter=0;lucidId=eRAhCxonKFcM;" parent="WIyWlLk6GJQsqaUBKTNV-1" source="3fczbsxRmoHJEnEu84x_-127" target="3fczbsxRmoHJEnEu84x_-128" edge="1">
          <mxGeometry width="100" height="100" relative="1" as="geometry">
            <Array as="points" />
          </mxGeometry>
        </mxCell>
        <mxCell id="3fczbsxRmoHJEnEu84x_-91" value="" style="html=1;jettySize=18;whiteSpace=wrap;fontSize=13;strokeColor=#3a414a;strokeOpacity=100;strokeWidth=0.8;rounded=1;arcSize=12;edgeStyle=orthogonalEdgeStyle;startArrow=none;endArrow=block;endFill=1;exitX=0.5;exitY=1.006;exitPerimeter=0;entryX=0.5;entryY=-0.006;entryPerimeter=0;lucidId=eRAhSfkxj.Zd;" parent="WIyWlLk6GJQsqaUBKTNV-1" source="3fczbsxRmoHJEnEu84x_-128" target="3fczbsxRmoHJEnEu84x_-129" edge="1">
          <mxGeometry width="100" height="100" relative="1" as="geometry">
            <Array as="points" />
          </mxGeometry>
        </mxCell>
        <mxCell id="3fczbsxRmoHJEnEu84x_-92" value="" style="html=1;jettySize=18;whiteSpace=wrap;fontSize=13;strokeColor=#3a414a;strokeOpacity=100;strokeWidth=0.8;rounded=1;arcSize=12;edgeStyle=orthogonalEdgeStyle;startArrow=none;endArrow=block;endFill=1;exitX=0.5;exitY=1.006;exitPerimeter=0;entryX=0.5;entryY=0.007;entryPerimeter=0;lucidId=eRAhhsachsZ0;" parent="WIyWlLk6GJQsqaUBKTNV-1" source="3fczbsxRmoHJEnEu84x_-129" target="3fczbsxRmoHJEnEu84x_-69" edge="1">
          <mxGeometry width="100" height="100" relative="1" as="geometry">
            <Array as="points" />
          </mxGeometry>
        </mxCell>
        <mxCell id="3fczbsxRmoHJEnEu84x_-93" value="" style="html=1;jettySize=18;whiteSpace=wrap;fontSize=13;strokeColor=#008a0e;strokeOpacity=100;strokeWidth=0.8;rounded=1;arcSize=12;edgeStyle=orthogonalEdgeStyle;startArrow=none;endArrow=block;endFill=1;exitX=0.991;exitY=0.5;exitPerimeter=0;entryX=-0.005;entryY=0.5;entryPerimeter=0;lucidId=eRAhxMXmPTiH;" parent="WIyWlLk6GJQsqaUBKTNV-1" source="3fczbsxRmoHJEnEu84x_-69" target="3fczbsxRmoHJEnEu84x_-70" edge="1">
          <mxGeometry width="100" height="100" relative="1" as="geometry">
            <Array as="points" />
          </mxGeometry>
        </mxCell>
        <mxCell id="3fczbsxRmoHJEnEu84x_-94" value="Yes" style="text;html=1;resizable=0;labelBackgroundColor=default;align=center;verticalAlign=middle;fontColor=#3a414a;fontSize=13;" parent="3fczbsxRmoHJEnEu84x_-93" vertex="1">
          <mxGeometry relative="1" as="geometry" />
        </mxCell>
        <mxCell id="3fczbsxRmoHJEnEu84x_-95" value="" style="html=1;jettySize=18;whiteSpace=wrap;fontSize=13;strokeColor=#e81313;strokeOpacity=100;dashed=1;fixDash=1;strokeWidth=0.8;rounded=1;arcSize=12;edgeStyle=orthogonalEdgeStyle;startArrow=none;endArrow=block;endFill=1;exitX=0.5;exitY=0.993;exitPerimeter=0;entryX=0.5;entryY=0.007;entryPerimeter=0;lucidId=eRAhMRDnoaN7;" parent="WIyWlLk6GJQsqaUBKTNV-1" source="3fczbsxRmoHJEnEu84x_-69" target="3fczbsxRmoHJEnEu84x_-71" edge="1">
          <mxGeometry width="100" height="100" relative="1" as="geometry">
            <Array as="points" />
          </mxGeometry>
        </mxCell>
        <mxCell id="3fczbsxRmoHJEnEu84x_-96" value="No" style="text;html=1;resizable=0;labelBackgroundColor=default;align=center;verticalAlign=middle;fontColor=#3a414a;fontSize=13;" parent="3fczbsxRmoHJEnEu84x_-95" vertex="1">
          <mxGeometry relative="1" as="geometry" />
        </mxCell>
        <mxCell id="3fczbsxRmoHJEnEu84x_-97" value="" style="html=1;jettySize=18;whiteSpace=wrap;fontSize=13;strokeColor=#008a0e;strokeOpacity=100;strokeWidth=0.8;rounded=1;arcSize=12;edgeStyle=orthogonalEdgeStyle;startArrow=none;endArrow=block;endFill=1;exitX=0.991;exitY=0.5;exitPerimeter=0;lucidId=eRAhjgdg4Sg9;entryX=0;entryY=0.5;entryDx=0;entryDy=0;" parent="WIyWlLk6GJQsqaUBKTNV-1" source="3fczbsxRmoHJEnEu84x_-71" target="3fczbsxRmoHJEnEu84x_-139" edge="1">
          <mxGeometry width="100" height="100" relative="1" as="geometry">
            <Array as="points" />
            <mxPoint x="735" y="-1698.71" as="targetPoint" />
          </mxGeometry>
        </mxCell>
        <mxCell id="3fczbsxRmoHJEnEu84x_-98" value="Yes" style="text;html=1;resizable=0;labelBackgroundColor=default;align=center;verticalAlign=middle;fontColor=#3a414a;fontSize=13;" parent="3fczbsxRmoHJEnEu84x_-97" vertex="1">
          <mxGeometry relative="1" as="geometry" />
        </mxCell>
        <mxCell id="3fczbsxRmoHJEnEu84x_-99" value="" style="html=1;jettySize=18;whiteSpace=wrap;fontSize=13;strokeColor=#e81313;strokeOpacity=100;dashed=1;fixDash=1;strokeWidth=0.8;rounded=1;arcSize=12;edgeStyle=orthogonalEdgeStyle;startArrow=none;endArrow=block;endFill=1;exitX=0.5;exitY=0.993;exitPerimeter=0;entryX=0.5;entryY=0.007;entryPerimeter=0;lucidId=eRAhq2rj_irK;" parent="WIyWlLk6GJQsqaUBKTNV-1" source="3fczbsxRmoHJEnEu84x_-71" target="3fczbsxRmoHJEnEu84x_-73" edge="1">
          <mxGeometry width="100" height="100" relative="1" as="geometry">
            <Array as="points" />
          </mxGeometry>
        </mxCell>
        <mxCell id="3fczbsxRmoHJEnEu84x_-100" value="No" style="text;html=1;resizable=0;labelBackgroundColor=default;align=center;verticalAlign=middle;fontColor=#3a414a;fontSize=13;" parent="3fczbsxRmoHJEnEu84x_-99" vertex="1">
          <mxGeometry relative="1" as="geometry" />
        </mxCell>
        <mxCell id="3fczbsxRmoHJEnEu84x_-103" value="" style="html=1;jettySize=18;whiteSpace=wrap;fontSize=13;strokeColor=#e81313;strokeOpacity=100;dashed=1;fixDash=1;strokeWidth=0.8;rounded=1;arcSize=12;edgeStyle=orthogonalEdgeStyle;startArrow=none;endArrow=block;endFill=1;exitX=0.5;exitY=0.993;exitPerimeter=0;entryX=0.5;entryY=0.007;entryPerimeter=0;lucidId=eRAhcoWT~uNA;" parent="WIyWlLk6GJQsqaUBKTNV-1" source="3fczbsxRmoHJEnEu84x_-73" target="3fczbsxRmoHJEnEu84x_-75" edge="1">
          <mxGeometry width="100" height="100" relative="1" as="geometry">
            <Array as="points" />
          </mxGeometry>
        </mxCell>
        <mxCell id="3fczbsxRmoHJEnEu84x_-104" value="No" style="text;html=1;resizable=0;labelBackgroundColor=default;align=center;verticalAlign=middle;fontColor=#3a414a;fontSize=13;" parent="3fczbsxRmoHJEnEu84x_-103" vertex="1">
          <mxGeometry relative="1" as="geometry" />
        </mxCell>
        <mxCell id="3fczbsxRmoHJEnEu84x_-105" value="" style="html=1;jettySize=18;whiteSpace=wrap;fontSize=13;strokeColor=#008a0e;strokeOpacity=100;strokeWidth=0.8;rounded=1;arcSize=12;edgeStyle=orthogonalEdgeStyle;startArrow=none;endArrow=block;endFill=1;exitX=0.991;exitY=0.5;exitPerimeter=0;lucidId=eRAhlB0MjHuO;entryX=0;entryY=0.5;entryDx=0;entryDy=0;" parent="WIyWlLk6GJQsqaUBKTNV-1" source="3fczbsxRmoHJEnEu84x_-75" target="3fczbsxRmoHJEnEu84x_-143" edge="1">
          <mxGeometry width="100" height="100" relative="1" as="geometry">
            <Array as="points" />
            <mxPoint x="725" y="-1098.71" as="targetPoint" />
          </mxGeometry>
        </mxCell>
        <mxCell id="3fczbsxRmoHJEnEu84x_-106" value="Yes" style="text;html=1;resizable=0;labelBackgroundColor=default;align=center;verticalAlign=middle;fontColor=#3a414a;fontSize=13;" parent="3fczbsxRmoHJEnEu84x_-105" vertex="1">
          <mxGeometry relative="1" as="geometry" />
        </mxCell>
        <mxCell id="3fczbsxRmoHJEnEu84x_-107" value="" style="html=1;jettySize=18;whiteSpace=wrap;fontSize=13;strokeColor=#e81313;strokeOpacity=100;dashed=1;fixDash=1;strokeWidth=0.8;rounded=1;arcSize=12;edgeStyle=orthogonalEdgeStyle;startArrow=none;endArrow=block;endFill=1;exitX=0.5;exitY=0.993;exitPerimeter=0;entryX=0.5;entryY=0.007;entryPerimeter=0;lucidId=eRAhUnxfrra-;" parent="WIyWlLk6GJQsqaUBKTNV-1" source="3fczbsxRmoHJEnEu84x_-75" target="3fczbsxRmoHJEnEu84x_-77" edge="1">
          <mxGeometry width="100" height="100" relative="1" as="geometry">
            <Array as="points" />
          </mxGeometry>
        </mxCell>
        <mxCell id="3fczbsxRmoHJEnEu84x_-108" value="No" style="text;html=1;resizable=0;labelBackgroundColor=default;align=center;verticalAlign=middle;fontColor=#3a414a;fontSize=13;" parent="3fczbsxRmoHJEnEu84x_-107" vertex="1">
          <mxGeometry relative="1" as="geometry" />
        </mxCell>
        <mxCell id="3fczbsxRmoHJEnEu84x_-109" value="" style="html=1;jettySize=18;whiteSpace=wrap;fontSize=13;strokeColor=#008a0e;strokeOpacity=100;strokeWidth=0.8;rounded=1;arcSize=12;edgeStyle=orthogonalEdgeStyle;startArrow=none;endArrow=block;endFill=1;exitX=0.991;exitY=0.5;exitPerimeter=0;lucidId=eRAhgrudIFUt;entryX=0;entryY=0.5;entryDx=0;entryDy=0;" parent="WIyWlLk6GJQsqaUBKTNV-1" source="3fczbsxRmoHJEnEu84x_-77" target="3fczbsxRmoHJEnEu84x_-144" edge="1">
          <mxGeometry width="100" height="100" relative="1" as="geometry">
            <Array as="points" />
            <mxPoint x="710" y="-658.21" as="targetPoint" />
          </mxGeometry>
        </mxCell>
        <mxCell id="3fczbsxRmoHJEnEu84x_-110" value="Yes" style="text;html=1;resizable=0;labelBackgroundColor=default;align=center;verticalAlign=middle;fontColor=#3a414a;fontSize=13;" parent="3fczbsxRmoHJEnEu84x_-109" vertex="1">
          <mxGeometry relative="1" as="geometry" />
        </mxCell>
        <mxCell id="3fczbsxRmoHJEnEu84x_-111" value="" style="html=1;jettySize=18;whiteSpace=wrap;fontSize=13;strokeColor=#e81313;strokeOpacity=100;dashed=1;fixDash=1;strokeWidth=0.8;rounded=1;arcSize=12;edgeStyle=orthogonalEdgeStyle;startArrow=none;endArrow=block;endFill=1;exitX=0.5;exitY=0.993;exitPerimeter=0;entryX=0.5;entryY=0.007;entryPerimeter=0;lucidId=eRAhIJ2NQqOq;" parent="WIyWlLk6GJQsqaUBKTNV-1" source="3fczbsxRmoHJEnEu84x_-77" target="3fczbsxRmoHJEnEu84x_-79" edge="1">
          <mxGeometry width="100" height="100" relative="1" as="geometry">
            <Array as="points" />
          </mxGeometry>
        </mxCell>
        <mxCell id="3fczbsxRmoHJEnEu84x_-112" value="No" style="text;html=1;resizable=0;labelBackgroundColor=default;align=center;verticalAlign=middle;fontColor=#3a414a;fontSize=13;" parent="3fczbsxRmoHJEnEu84x_-111" vertex="1">
          <mxGeometry relative="1" as="geometry" />
        </mxCell>
        <mxCell id="3fczbsxRmoHJEnEu84x_-118" value="" style="html=1;jettySize=18;whiteSpace=wrap;fontSize=13;strokeColor=#3a414a;strokeOpacity=100;strokeWidth=0.8;rounded=1;arcSize=12;startArrow=none;endArrow=block;endFill=1;exitX=0.5;exitY=1.006;exitPerimeter=0;lucidId=eRAhbJlBrYZg;elbow=vertical;entryX=1;entryY=0.5;entryDx=0;entryDy=0;" parent="WIyWlLk6GJQsqaUBKTNV-1" source="3fczbsxRmoHJEnEu84x_-80" target="3fczbsxRmoHJEnEu84x_-82" edge="1">
          <mxGeometry width="100" height="100" relative="1" as="geometry">
            <Array as="points">
              <mxPoint x="853" y="112.28999999999996" />
            </Array>
            <mxPoint x="665" y="161.28999999999996" as="targetPoint" />
          </mxGeometry>
        </mxCell>
        <mxCell id="3fczbsxRmoHJEnEu84x_-119" value="" style="html=1;jettySize=18;whiteSpace=wrap;fontSize=13;strokeColor=#e81313;strokeOpacity=100;dashed=1;fixDash=1;strokeWidth=0.8;rounded=1;arcSize=12;edgeStyle=orthogonalEdgeStyle;startArrow=none;endArrow=block;endFill=1;exitX=0.5;exitY=1.006;exitPerimeter=0;entryX=0.5;entryY=0;lucidId=eRAhp.dH~-mH;entryDx=0;entryDy=0;" parent="WIyWlLk6GJQsqaUBKTNV-1" source="3fczbsxRmoHJEnEu84x_-82" target="3fczbsxRmoHJEnEu84x_-225" edge="1">
          <mxGeometry width="100" height="100" relative="1" as="geometry">
            <Array as="points" />
            <mxPoint x="496.5" y="510.5699999999997" as="targetPoint" />
          </mxGeometry>
        </mxCell>
        <mxCell id="3fczbsxRmoHJEnEu84x_-120" value="No" style="text;html=1;resizable=0;labelBackgroundColor=default;align=center;verticalAlign=middle;fontColor=#3a414a;fontSize=13;" parent="3fczbsxRmoHJEnEu84x_-119" vertex="1">
          <mxGeometry relative="1" as="geometry" />
        </mxCell>
        <mxCell id="3fczbsxRmoHJEnEu84x_-121" value="" style="html=1;jettySize=18;whiteSpace=wrap;fontSize=13;strokeColor=#3a414a;strokeOpacity=100;strokeWidth=0.8;rounded=1;arcSize=12;edgeStyle=orthogonalEdgeStyle;startArrow=none;endArrow=block;endFill=1;exitX=1.005;exitY=0.5;exitPerimeter=0;entryX=0.102;entryY=0.5;entryPerimeter=0;lucidId=KXAh2Hc~4Bh_;" parent="WIyWlLk6GJQsqaUBKTNV-1" source="3fczbsxRmoHJEnEu84x_-70" target="3fczbsxRmoHJEnEu84x_-130" edge="1">
          <mxGeometry width="100" height="100" relative="1" as="geometry">
            <Array as="points" />
          </mxGeometry>
        </mxCell>
        <mxCell id="3fczbsxRmoHJEnEu84x_-127" value="Display &quot;PhoneBook Application&quot;" style="html=1;overflow=block;blockSpacing=1;whiteSpace=wrap;shape=parallelogram;perimeter=parallelogramPerimeter;anchorPointDirection=0;fontSize=13;spacing=3.8;rounded=1;absoluteArcSize=1;arcSize=9;strokeWidth=NaN;lucidId=TRBhgVVi.9eU;" parent="WIyWlLk6GJQsqaUBKTNV-1" vertex="1">
          <mxGeometry x="437.5" y="-2845.71" width="137" height="107" as="geometry" />
        </mxCell>
        <mxCell id="3fczbsxRmoHJEnEu84x_-128" value="Display menu options" style="html=1;overflow=block;blockSpacing=1;whiteSpace=wrap;shape=parallelogram;perimeter=parallelogramPerimeter;anchorPointDirection=0;fontSize=13;spacing=3.8;rounded=1;absoluteArcSize=1;arcSize=9;strokeWidth=NaN;lucidId=6RBhGlp7gwiF;" parent="WIyWlLk6GJQsqaUBKTNV-1" vertex="1">
          <mxGeometry x="443.5" y="-2577.71" width="127" height="109" as="geometry" />
        </mxCell>
        <mxCell id="3fczbsxRmoHJEnEu84x_-129" value="Input choice" style="html=1;overflow=block;blockSpacing=1;whiteSpace=wrap;shape=parallelogram;perimeter=parallelogramPerimeter;anchorPointDirection=0;fontSize=13;spacing=3.8;rounded=1;absoluteArcSize=1;arcSize=9;strokeWidth=NaN;lucidId=NTBh9xElIymQ;" parent="WIyWlLk6GJQsqaUBKTNV-1" vertex="1">
          <mxGeometry x="437.5" y="-2303.71" width="137" height="115" as="geometry" />
        </mxCell>
        <mxCell id="3fczbsxRmoHJEnEu84x_-130" value="Enter name" style="html=1;overflow=block;blockSpacing=1;whiteSpace=wrap;shape=parallelogram;perimeter=parallelogramPerimeter;anchorPointDirection=0;fontSize=16.7;spacing=3.8;rounded=1;absoluteArcSize=1;arcSize=9;strokeWidth=NaN;lucidId=1UBheFtj..Al;" parent="WIyWlLk6GJQsqaUBKTNV-1" vertex="1">
          <mxGeometry x="1015" y="-2020.21" width="130" height="101" as="geometry" />
        </mxCell>
        <mxCell id="3fczbsxRmoHJEnEu84x_-131" value="" style="html=1;jettySize=18;whiteSpace=wrap;fontSize=13;strokeColor=#3a414a;strokeOpacity=100;strokeWidth=0.8;rounded=1;arcSize=12;edgeStyle=orthogonalEdgeStyle;startArrow=none;endArrow=block;endFill=1;exitX=0.898;exitY=0.5;exitPerimeter=0;entryX=0.102;entryY=0.5;entryPerimeter=0;lucidId=sVBh4d-j__hQ;" parent="WIyWlLk6GJQsqaUBKTNV-1" source="3fczbsxRmoHJEnEu84x_-130" target="3fczbsxRmoHJEnEu84x_-132" edge="1">
          <mxGeometry width="100" height="100" relative="1" as="geometry">
            <Array as="points" />
          </mxGeometry>
        </mxCell>
        <mxCell id="3fczbsxRmoHJEnEu84x_-132" value="Enter phone number" style="html=1;overflow=block;blockSpacing=1;whiteSpace=wrap;shape=parallelogram;perimeter=parallelogramPerimeter;anchorPointDirection=0;fontSize=16.7;spacing=3.8;rounded=1;absoluteArcSize=1;arcSize=9;strokeWidth=NaN;lucidId=sVBh6.mMNMvk;" parent="WIyWlLk6GJQsqaUBKTNV-1" vertex="1">
          <mxGeometry x="1235" y="-2020.21" width="125" height="101" as="geometry" />
        </mxCell>
        <mxCell id="3fczbsxRmoHJEnEu84x_-133" value="Create new contact" style="html=1;overflow=block;blockSpacing=1;whiteSpace=wrap;fontSize=13;spacing=9;rounded=1;absoluteArcSize=1;arcSize=9;strokeWidth=NaN;lucidId=BWBh74a_5Ecy;" parent="WIyWlLk6GJQsqaUBKTNV-1" vertex="1">
          <mxGeometry x="1475" y="-2010.21" width="152" height="81" as="geometry" />
        </mxCell>
        <mxCell id="3fczbsxRmoHJEnEu84x_-134" value="" style="html=1;jettySize=18;whiteSpace=wrap;fontSize=13;strokeOpacity=100;strokeWidth=0.8;rounded=1;arcSize=12;edgeStyle=orthogonalEdgeStyle;startArrow=none;endArrow=block;endFill=1;exitX=0.898;exitY=0.5;exitPerimeter=0;entryX=-0.005;entryY=0.5;entryPerimeter=0;lucidId=UWBhq2eKNjBZ;" parent="WIyWlLk6GJQsqaUBKTNV-1" source="3fczbsxRmoHJEnEu84x_-132" target="3fczbsxRmoHJEnEu84x_-133" edge="1">
          <mxGeometry width="100" height="100" relative="1" as="geometry">
            <Array as="points" />
          </mxGeometry>
        </mxCell>
        <mxCell id="3fczbsxRmoHJEnEu84x_-135" value="Add new contact to phone book" style="html=1;overflow=block;blockSpacing=1;whiteSpace=wrap;fontSize=13;spacing=9;rounded=1;absoluteArcSize=1;arcSize=9;strokeWidth=NaN;lucidId=aYBh92vHMkYU;" parent="WIyWlLk6GJQsqaUBKTNV-1" vertex="1">
          <mxGeometry x="1745" y="-2009.21" width="152" height="81" as="geometry" />
        </mxCell>
        <mxCell id="3fczbsxRmoHJEnEu84x_-136" value="" style="html=1;jettySize=18;whiteSpace=wrap;fontSize=13;strokeOpacity=100;strokeWidth=0.8;rounded=1;arcSize=12;edgeStyle=orthogonalEdgeStyle;startArrow=none;endArrow=block;endFill=1;exitX=1;exitY=0.5;lucidId=UWBhq2eKNjBZ;entryX=0;entryY=0.5;entryDx=0;entryDy=0;exitDx=0;exitDy=0;" parent="WIyWlLk6GJQsqaUBKTNV-1" source="3fczbsxRmoHJEnEu84x_-133" target="3fczbsxRmoHJEnEu84x_-135" edge="1">
          <mxGeometry width="100" height="100" relative="1" as="geometry">
            <Array as="points" />
            <mxPoint x="1767" y="-1969.19" as="sourcePoint" />
            <mxPoint x="1887" y="-1969.19" as="targetPoint" />
          </mxGeometry>
        </mxCell>
        <mxCell id="3fczbsxRmoHJEnEu84x_-137" value="Display &quot;Contact added&quot;" style="html=1;overflow=block;blockSpacing=1;whiteSpace=wrap;shape=parallelogram;perimeter=parallelogramPerimeter;anchorPointDirection=0;fontSize=13;spacing=3.8;rounded=1;absoluteArcSize=1;arcSize=9;strokeWidth=NaN;lucidId=6RBhGlp7gwiF;" parent="WIyWlLk6GJQsqaUBKTNV-1" vertex="1">
          <mxGeometry x="1995" y="-2013.96" width="112" height="90.5" as="geometry" />
        </mxCell>
        <mxCell id="3fczbsxRmoHJEnEu84x_-138" value="" style="html=1;jettySize=18;whiteSpace=wrap;fontSize=13;strokeOpacity=100;strokeWidth=0.8;rounded=1;arcSize=12;edgeStyle=orthogonalEdgeStyle;startArrow=none;endArrow=block;endFill=1;lucidId=UWBhq2eKNjBZ;entryX=0;entryY=0.5;entryDx=0;entryDy=0;exitX=1;exitY=0.5;exitDx=0;exitDy=0;" parent="WIyWlLk6GJQsqaUBKTNV-1" source="3fczbsxRmoHJEnEu84x_-135" target="3fczbsxRmoHJEnEu84x_-137" edge="1">
          <mxGeometry width="100" height="100" relative="1" as="geometry">
            <Array as="points" />
            <mxPoint x="1955" y="-1998.71" as="sourcePoint" />
            <mxPoint x="2015" y="-1977.71" as="targetPoint" />
          </mxGeometry>
        </mxCell>
        <mxCell id="3fczbsxRmoHJEnEu84x_-139" value="Call searchContact()" style="html=1;overflow=block;blockSpacing=1;whiteSpace=wrap;fontSize=13;spacing=9;rounded=1;absoluteArcSize=1;arcSize=9;strokeWidth=NaN;lucidId=eRAhY9dSQfNk;" parent="WIyWlLk6GJQsqaUBKTNV-1" vertex="1">
          <mxGeometry x="755" y="-1739.21" width="152" height="81" as="geometry" />
        </mxCell>
        <mxCell id="3fczbsxRmoHJEnEu84x_-141" value="" style="html=1;jettySize=18;whiteSpace=wrap;fontSize=13;strokeColor=#008a0e;strokeOpacity=100;strokeWidth=0.8;rounded=1;arcSize=12;edgeStyle=orthogonalEdgeStyle;startArrow=none;endArrow=block;endFill=1;exitX=0.991;exitY=0.5;exitPerimeter=0;entryX=0;entryY=0.5;lucidId=eRAhu2S5q5NP;entryDx=0;entryDy=0;" parent="WIyWlLk6GJQsqaUBKTNV-1" source="3fczbsxRmoHJEnEu84x_-73" target="3fczbsxRmoHJEnEu84x_-140" edge="1">
          <mxGeometry width="100" height="100" relative="1" as="geometry">
            <Array as="points" />
            <mxPoint x="580" y="-1426.71" as="sourcePoint" />
            <mxPoint x="1260" y="-1216.71" as="targetPoint" />
          </mxGeometry>
        </mxCell>
        <mxCell id="3fczbsxRmoHJEnEu84x_-142" value="Yes" style="text;html=1;resizable=0;labelBackgroundColor=default;align=center;verticalAlign=middle;fontColor=#3a414a;fontSize=13;" parent="3fczbsxRmoHJEnEu84x_-141" vertex="1">
          <mxGeometry relative="1" as="geometry" />
        </mxCell>
        <mxCell id="3fczbsxRmoHJEnEu84x_-140" value="Call displayAllContacts()" style="html=1;overflow=block;blockSpacing=1;whiteSpace=wrap;fontSize=13;spacing=9;rounded=1;absoluteArcSize=1;arcSize=9;strokeWidth=NaN;lucidId=eRAhY9dSQfNk;" parent="WIyWlLk6GJQsqaUBKTNV-1" vertex="1">
          <mxGeometry x="760" y="-1467.21" width="152" height="81" as="geometry" />
        </mxCell>
        <mxCell id="3fczbsxRmoHJEnEu84x_-143" value="Call deleteContact()" style="html=1;overflow=block;blockSpacing=1;whiteSpace=wrap;fontSize=13;spacing=9;rounded=1;absoluteArcSize=1;arcSize=9;strokeWidth=NaN;lucidId=eRAhY9dSQfNk;" parent="WIyWlLk6GJQsqaUBKTNV-1" vertex="1">
          <mxGeometry x="760" y="-1139.21" width="152" height="81" as="geometry" />
        </mxCell>
        <mxCell id="3fczbsxRmoHJEnEu84x_-144" value="Call updateContact()" style="html=1;overflow=block;blockSpacing=1;whiteSpace=wrap;fontSize=13;spacing=9;rounded=1;absoluteArcSize=1;arcSize=9;strokeWidth=NaN;lucidId=eRAhY9dSQfNk;" parent="WIyWlLk6GJQsqaUBKTNV-1" vertex="1">
          <mxGeometry x="755" y="-698.71" width="152" height="81" as="geometry" />
        </mxCell>
        <mxCell id="3fczbsxRmoHJEnEu84x_-145" value="" style="html=1;jettySize=18;whiteSpace=wrap;fontSize=13;strokeColor=#3a414a;strokeOpacity=100;strokeWidth=0.8;rounded=1;arcSize=12;edgeStyle=orthogonalEdgeStyle;startArrow=none;endArrow=block;endFill=1;exitX=1.005;exitY=0.5;exitPerimeter=0;entryX=0;entryY=0.5;lucidId=KXAh2Hc~4Bh_;entryDx=0;entryDy=0;" parent="WIyWlLk6GJQsqaUBKTNV-1" target="3fczbsxRmoHJEnEu84x_-146" edge="1">
          <mxGeometry width="100" height="100" relative="1" as="geometry">
            <Array as="points" />
            <mxPoint x="907" y="-1698.5" as="sourcePoint" />
            <mxPoint x="1022" y="-1699.5" as="targetPoint" />
          </mxGeometry>
        </mxCell>
        <mxCell id="3fczbsxRmoHJEnEu84x_-146" value="Input&amp;nbsp;&lt;div&gt;name to be searched&lt;/div&gt;" style="html=1;overflow=block;blockSpacing=1;whiteSpace=wrap;shape=parallelogram;perimeter=parallelogramPerimeter;anchorPointDirection=0;fontSize=16.7;spacing=3.8;rounded=1;absoluteArcSize=1;arcSize=9;strokeWidth=NaN;lucidId=1UBheFtj..Al;" parent="WIyWlLk6GJQsqaUBKTNV-1" vertex="1">
          <mxGeometry x="1015" y="-1749.21" width="130" height="101" as="geometry" />
        </mxCell>
        <mxCell id="3fczbsxRmoHJEnEu84x_-147" value="&amp;nbsp; &amp;nbsp;for&lt;div&gt;(i=0; i&amp;lt;=contacts in phoneBook; i++)&lt;/div&gt;" style="html=1;overflow=block;blockSpacing=1;whiteSpace=wrap;fontSize=13;spacing=9;rounded=1;absoluteArcSize=1;arcSize=9;strokeWidth=NaN;lucidId=BWBh74a_5Ecy;" parent="WIyWlLk6GJQsqaUBKTNV-1" vertex="1">
          <mxGeometry x="1221.5" y="-1739.21" width="152" height="81" as="geometry" />
        </mxCell>
        <mxCell id="3fczbsxRmoHJEnEu84x_-148" value="" style="html=1;jettySize=18;whiteSpace=wrap;fontSize=13;strokeColor=#3a414a;strokeOpacity=100;strokeWidth=0.8;rounded=1;arcSize=12;edgeStyle=orthogonalEdgeStyle;startArrow=none;endArrow=block;endFill=1;exitX=1;exitY=0.5;lucidId=KXAh2Hc~4Bh_;exitDx=0;exitDy=0;" parent="WIyWlLk6GJQsqaUBKTNV-1" source="3fczbsxRmoHJEnEu84x_-146" edge="1">
          <mxGeometry width="100" height="100" relative="1" as="geometry">
            <Array as="points" />
            <mxPoint x="1185" y="-1699.21" as="sourcePoint" />
            <mxPoint x="1219" y="-1699.71" as="targetPoint" />
          </mxGeometry>
        </mxCell>
        <mxCell id="3fczbsxRmoHJEnEu84x_-150" value="&lt;font style=&quot;font-size: 12px;&quot;&gt;if&lt;/font&gt;&lt;div style=&quot;font-size: 12px;&quot;&gt;&lt;font style=&quot;font-size: 12px;&quot;&gt;(nameInserted==nameInPhoneBook)&amp;nbsp;&lt;/font&gt;&lt;div style=&quot;&quot;&gt;&lt;font style=&quot;font-size: 12px;&quot;&gt;then&lt;/font&gt;&lt;/div&gt;&lt;/div&gt;" style="html=1;overflow=block;blockSpacing=1;whiteSpace=wrap;rhombus;fontSize=13;spacing=3.8;rounded=1;absoluteArcSize=1;arcSize=9;strokeWidth=NaN;lucidId=eRAhl8F1_OAq;" parent="WIyWlLk6GJQsqaUBKTNV-1" vertex="1">
          <mxGeometry x="1475" y="-1758.71" width="240" height="120" as="geometry" />
        </mxCell>
        <mxCell id="3fczbsxRmoHJEnEu84x_-151" value="" style="html=1;jettySize=18;whiteSpace=wrap;fontSize=13;strokeColor=#3a414a;strokeOpacity=100;strokeWidth=0.8;rounded=1;arcSize=12;edgeStyle=orthogonalEdgeStyle;startArrow=none;endArrow=block;endFill=1;lucidId=KXAh2Hc~4Bh_;entryX=0;entryY=0.5;entryDx=0;entryDy=0;exitX=1;exitY=0.5;exitDx=0;exitDy=0;" parent="WIyWlLk6GJQsqaUBKTNV-1" source="3fczbsxRmoHJEnEu84x_-147" target="3fczbsxRmoHJEnEu84x_-150" edge="1">
          <mxGeometry width="100" height="100" relative="1" as="geometry">
            <Array as="points" />
            <mxPoint x="1405" y="-1698.71" as="sourcePoint" />
            <mxPoint x="1452" y="-1699.48" as="targetPoint" />
          </mxGeometry>
        </mxCell>
        <mxCell id="3fczbsxRmoHJEnEu84x_-152" value="" style="html=1;jettySize=18;whiteSpace=wrap;fontSize=13;strokeColor=#008a0e;strokeOpacity=100;strokeWidth=0.8;rounded=1;arcSize=12;edgeStyle=orthogonalEdgeStyle;startArrow=none;endArrow=block;endFill=1;lucidId=eRAhjgdg4Sg9;exitX=1;exitY=0.5;exitDx=0;exitDy=0;entryX=0;entryY=0.5;entryDx=0;entryDy=0;" parent="WIyWlLk6GJQsqaUBKTNV-1" source="3fczbsxRmoHJEnEu84x_-150" target="3fczbsxRmoHJEnEu84x_-154" edge="1">
          <mxGeometry width="100" height="100" relative="1" as="geometry">
            <Array as="points" />
            <mxPoint x="1755" y="-1698.71" as="sourcePoint" />
            <mxPoint x="1855" y="-1699.71" as="targetPoint" />
          </mxGeometry>
        </mxCell>
        <mxCell id="3fczbsxRmoHJEnEu84x_-153" value="Yes" style="text;html=1;resizable=0;labelBackgroundColor=default;align=center;verticalAlign=middle;fontColor=#3a414a;fontSize=13;" parent="3fczbsxRmoHJEnEu84x_-152" vertex="1">
          <mxGeometry relative="1" as="geometry" />
        </mxCell>
        <mxCell id="3fczbsxRmoHJEnEu84x_-154" value="Display contact details" style="html=1;overflow=block;blockSpacing=1;whiteSpace=wrap;shape=parallelogram;perimeter=parallelogramPerimeter;anchorPointDirection=0;fontSize=13;spacing=3.8;rounded=1;absoluteArcSize=1;arcSize=9;strokeWidth=NaN;lucidId=6RBhGlp7gwiF;" parent="WIyWlLk6GJQsqaUBKTNV-1" vertex="1">
          <mxGeometry x="1865" y="-1743.96" width="112" height="90.5" as="geometry" />
        </mxCell>
        <mxCell id="3fczbsxRmoHJEnEu84x_-155" value="" style="html=1;jettySize=18;whiteSpace=wrap;fontSize=13;strokeColor=#e81313;strokeOpacity=100;dashed=1;fixDash=1;strokeWidth=0.8;rounded=1;arcSize=12;edgeStyle=elbowEdgeStyle;startArrow=none;endArrow=block;endFill=1;exitX=0.5;exitY=0.993;exitPerimeter=0;lucidId=eRAhq2rj_irK;elbow=vertical;entryX=0.5;entryY=0;entryDx=0;entryDy=0;" parent="WIyWlLk6GJQsqaUBKTNV-1" target="3fczbsxRmoHJEnEu84x_-157" edge="1">
          <mxGeometry width="100" height="100" relative="1" as="geometry">
            <mxPoint x="1594.38" y="-1638.71" as="sourcePoint" />
            <mxPoint x="1725" y="-1548.71" as="targetPoint" />
          </mxGeometry>
        </mxCell>
        <mxCell id="3fczbsxRmoHJEnEu84x_-156" value="No" style="text;html=1;resizable=0;labelBackgroundColor=default;align=center;verticalAlign=middle;fontColor=#3a414a;fontSize=13;" parent="3fczbsxRmoHJEnEu84x_-155" vertex="1">
          <mxGeometry relative="1" as="geometry" />
        </mxCell>
        <mxCell id="3fczbsxRmoHJEnEu84x_-157" value="Display &quot;Contact not found" style="html=1;overflow=block;blockSpacing=1;whiteSpace=wrap;shape=parallelogram;perimeter=parallelogramPerimeter;anchorPointDirection=0;fontSize=13;spacing=3.8;rounded=1;absoluteArcSize=1;arcSize=9;strokeWidth=NaN;lucidId=6RBhGlp7gwiF;" parent="WIyWlLk6GJQsqaUBKTNV-1" vertex="1">
          <mxGeometry x="1755" y="-1587.21" width="120" height="100.5" as="geometry" />
        </mxCell>
        <mxCell id="3fczbsxRmoHJEnEu84x_-158" value="" style="html=1;jettySize=18;whiteSpace=wrap;fontSize=13;strokeColor=#3a414a;strokeOpacity=100;strokeWidth=0.8;rounded=1;arcSize=12;edgeStyle=orthogonalEdgeStyle;startArrow=none;endArrow=block;endFill=1;lucidId=KXAh2Hc~4Bh_;entryX=0;entryY=0.5;entryDx=0;entryDy=0;exitX=1;exitY=0.5;exitDx=0;exitDy=0;" parent="WIyWlLk6GJQsqaUBKTNV-1" edge="1">
          <mxGeometry width="100" height="100" relative="1" as="geometry">
            <Array as="points" />
            <mxPoint x="913" y="-1427.33" as="sourcePoint" />
            <mxPoint x="1015" y="-1427.33" as="targetPoint" />
          </mxGeometry>
        </mxCell>
        <mxCell id="3fczbsxRmoHJEnEu84x_-159" value="&lt;span style=&quot;font-size: 12px;&quot;&gt;If(phonebook==empty) then&lt;/span&gt;" style="html=1;overflow=block;blockSpacing=1;whiteSpace=wrap;rhombus;fontSize=13;spacing=3.8;rounded=1;absoluteArcSize=1;arcSize=9;strokeWidth=NaN;lucidId=eRAhl8F1_OAq;" parent="WIyWlLk6GJQsqaUBKTNV-1" vertex="1">
          <mxGeometry x="1015" y="-1486.71" width="190" height="120" as="geometry" />
        </mxCell>
        <mxCell id="3fczbsxRmoHJEnEu84x_-160" value="" style="html=1;jettySize=18;whiteSpace=wrap;fontSize=13;strokeColor=#008a0e;strokeOpacity=100;strokeWidth=0.8;rounded=1;arcSize=12;edgeStyle=orthogonalEdgeStyle;startArrow=none;endArrow=block;endFill=1;lucidId=eRAhjgdg4Sg9;exitX=1;exitY=0.5;exitDx=0;exitDy=0;entryX=0;entryY=0.5;entryDx=0;entryDy=0;" parent="WIyWlLk6GJQsqaUBKTNV-1" target="3fczbsxRmoHJEnEu84x_-162" edge="1">
          <mxGeometry width="100" height="100" relative="1" as="geometry">
            <Array as="points" />
            <mxPoint x="1205" y="-1427.33" as="sourcePoint" />
            <mxPoint x="1366" y="-1427.33" as="targetPoint" />
          </mxGeometry>
        </mxCell>
        <mxCell id="3fczbsxRmoHJEnEu84x_-161" value="Yes" style="text;html=1;resizable=0;labelBackgroundColor=default;align=center;verticalAlign=middle;fontColor=#3a414a;fontSize=13;" parent="3fczbsxRmoHJEnEu84x_-160" vertex="1">
          <mxGeometry relative="1" as="geometry" />
        </mxCell>
        <mxCell id="3fczbsxRmoHJEnEu84x_-162" value="Display &quot;The phoneBook is empty.&quot;" style="html=1;overflow=block;blockSpacing=1;whiteSpace=wrap;shape=parallelogram;perimeter=parallelogramPerimeter;anchorPointDirection=0;fontSize=13;spacing=3.8;rounded=1;absoluteArcSize=1;arcSize=9;strokeWidth=NaN;lucidId=6RBhGlp7gwiF;" parent="WIyWlLk6GJQsqaUBKTNV-1" vertex="1">
          <mxGeometry x="1405" y="-1471.96" width="112" height="90.5" as="geometry" />
        </mxCell>
        <mxCell id="3fczbsxRmoHJEnEu84x_-163" value="" style="html=1;jettySize=18;whiteSpace=wrap;fontSize=13;strokeColor=#e81313;strokeOpacity=100;dashed=1;fixDash=1;strokeWidth=0.8;rounded=1;arcSize=12;edgeStyle=elbowEdgeStyle;startArrow=none;endArrow=block;endFill=1;exitX=0.5;exitY=1;lucidId=eRAhq2rj_irK;elbow=vertical;exitDx=0;exitDy=0;entryX=0.609;entryY=-0.031;entryDx=0;entryDy=0;entryPerimeter=0;" parent="WIyWlLk6GJQsqaUBKTNV-1" source="3fczbsxRmoHJEnEu84x_-159" target="3fczbsxRmoHJEnEu84x_-165" edge="1">
          <mxGeometry width="100" height="100" relative="1" as="geometry">
            <mxPoint x="1105" y="-1328.71" as="sourcePoint" />
            <mxPoint x="1215" y="-1308.71" as="targetPoint" />
          </mxGeometry>
        </mxCell>
        <mxCell id="3fczbsxRmoHJEnEu84x_-164" value="No" style="text;html=1;resizable=0;labelBackgroundColor=default;align=center;verticalAlign=middle;fontColor=#3a414a;fontSize=13;" parent="3fczbsxRmoHJEnEu84x_-163" vertex="1">
          <mxGeometry relative="1" as="geometry" />
        </mxCell>
        <mxCell id="3fczbsxRmoHJEnEu84x_-165" value="Display&amp;nbsp;&lt;div&gt;all contacts in phoneBook&lt;/div&gt;" style="html=1;overflow=block;blockSpacing=1;whiteSpace=wrap;shape=parallelogram;perimeter=parallelogramPerimeter;anchorPointDirection=0;fontSize=13;spacing=3.8;rounded=1;absoluteArcSize=1;arcSize=9;strokeWidth=NaN;lucidId=6RBhGlp7gwiF;" parent="WIyWlLk6GJQsqaUBKTNV-1" vertex="1">
          <mxGeometry x="1221.5" y="-1318.71" width="120" height="100.5" as="geometry" />
        </mxCell>
        <mxCell id="3fczbsxRmoHJEnEu84x_-166" value="&lt;font style=&quot;font-size: 13px;&quot;&gt;Enter name to be deleted&lt;/font&gt;" style="html=1;overflow=block;blockSpacing=1;whiteSpace=wrap;shape=parallelogram;perimeter=parallelogramPerimeter;anchorPointDirection=0;fontSize=16.7;spacing=3.8;rounded=1;absoluteArcSize=1;arcSize=9;strokeWidth=NaN;lucidId=1UBheFtj..Al;" parent="WIyWlLk6GJQsqaUBKTNV-1" vertex="1">
          <mxGeometry x="985" y="-1149.21" width="130" height="101" as="geometry" />
        </mxCell>
        <mxCell id="3fczbsxRmoHJEnEu84x_-167" value="" style="html=1;jettySize=18;whiteSpace=wrap;fontSize=13;strokeColor=#3a414a;strokeOpacity=100;strokeWidth=0.8;rounded=1;arcSize=12;edgeStyle=orthogonalEdgeStyle;startArrow=none;endArrow=block;endFill=1;lucidId=KXAh2Hc~4Bh_;entryX=0;entryY=0.5;entryDx=0;entryDy=0;exitX=1;exitY=0.5;exitDx=0;exitDy=0;" parent="WIyWlLk6GJQsqaUBKTNV-1" target="3fczbsxRmoHJEnEu84x_-166" edge="1">
          <mxGeometry width="100" height="100" relative="1" as="geometry">
            <Array as="points" />
            <mxPoint x="912" y="-1099.3000000000002" as="sourcePoint" />
            <mxPoint x="1014" y="-1099.3000000000002" as="targetPoint" />
          </mxGeometry>
        </mxCell>
        <mxCell id="3fczbsxRmoHJEnEu84x_-169" value="" style="html=1;jettySize=18;whiteSpace=wrap;fontSize=13;strokeColor=#3a414a;strokeOpacity=100;strokeWidth=0.8;rounded=1;arcSize=12;edgeStyle=orthogonalEdgeStyle;startArrow=none;endArrow=block;endFill=1;lucidId=KXAh2Hc~4Bh_;entryX=0;entryY=0.5;entryDx=0;entryDy=0;exitX=1;exitY=0.5;exitDx=0;exitDy=0;" parent="WIyWlLk6GJQsqaUBKTNV-1" source="3fczbsxRmoHJEnEu84x_-166" target="3fczbsxRmoHJEnEu84x_-170" edge="1">
          <mxGeometry width="100" height="100" relative="1" as="geometry">
            <Array as="points" />
            <mxPoint x="1129" y="-1099.27" as="sourcePoint" />
            <mxPoint x="1165" y="-1098.710000000001" as="targetPoint" />
          </mxGeometry>
        </mxCell>
        <mxCell id="3fczbsxRmoHJEnEu84x_-170" value="for&lt;div&gt;(i=0; i&amp;lt;=contacts in phoneBook; i++)&lt;/div&gt;" style="html=1;overflow=block;blockSpacing=1;whiteSpace=wrap;fontSize=13;spacing=9;rounded=1;absoluteArcSize=1;arcSize=9;strokeWidth=NaN;lucidId=BWBh74a_5Ecy;" parent="WIyWlLk6GJQsqaUBKTNV-1" vertex="1">
          <mxGeometry x="1185" y="-1139.21" width="152" height="81" as="geometry" />
        </mxCell>
        <mxCell id="3fczbsxRmoHJEnEu84x_-171" value="" style="html=1;jettySize=18;whiteSpace=wrap;fontSize=13;strokeColor=#3a414a;strokeOpacity=100;strokeWidth=0.8;rounded=1;arcSize=12;edgeStyle=orthogonalEdgeStyle;startArrow=none;endArrow=block;endFill=1;lucidId=KXAh2Hc~4Bh_;exitX=1;exitY=0.5;exitDx=0;exitDy=0;entryX=0;entryY=0.5;entryDx=0;entryDy=0;" parent="WIyWlLk6GJQsqaUBKTNV-1" source="3fczbsxRmoHJEnEu84x_-170" target="3fczbsxRmoHJEnEu84x_-175" edge="1">
          <mxGeometry width="100" height="100" relative="1" as="geometry">
            <Array as="points" />
            <mxPoint x="1385" y="-1098.71" as="sourcePoint" />
            <mxPoint x="1435" y="-1098.71" as="targetPoint" />
          </mxGeometry>
        </mxCell>
        <mxCell id="3fczbsxRmoHJEnEu84x_-175" value="&lt;span style=&quot;font-size: 10px;&quot;&gt;if&lt;br&gt;(nameInsterted==nameInPhoneBook) then&lt;/span&gt;" style="html=1;overflow=block;blockSpacing=1;whiteSpace=wrap;rhombus;fontSize=13;spacing=3.8;rounded=1;absoluteArcSize=1;arcSize=9;strokeWidth=NaN;lucidId=eRAhl8F1_OAq;" parent="WIyWlLk6GJQsqaUBKTNV-1" vertex="1">
          <mxGeometry x="1445" y="-1158.71" width="190" height="120" as="geometry" />
        </mxCell>
        <mxCell id="3fczbsxRmoHJEnEu84x_-176" value="" style="html=1;jettySize=18;whiteSpace=wrap;fontSize=13;strokeColor=#008a0e;strokeOpacity=100;strokeWidth=0.8;rounded=1;arcSize=12;edgeStyle=orthogonalEdgeStyle;startArrow=none;endArrow=block;endFill=1;lucidId=eRAhjgdg4Sg9;exitX=1;exitY=0.5;exitDx=0;exitDy=0;" parent="WIyWlLk6GJQsqaUBKTNV-1" edge="1">
          <mxGeometry width="100" height="100" relative="1" as="geometry">
            <Array as="points" />
            <mxPoint x="1635" y="-1099.33" as="sourcePoint" />
            <mxPoint x="1755" y="-1098.71" as="targetPoint" />
          </mxGeometry>
        </mxCell>
        <mxCell id="3fczbsxRmoHJEnEu84x_-177" value="Yes" style="text;html=1;resizable=0;labelBackgroundColor=default;align=center;verticalAlign=middle;fontColor=#3a414a;fontSize=13;" parent="3fczbsxRmoHJEnEu84x_-176" vertex="1">
          <mxGeometry relative="1" as="geometry" />
        </mxCell>
        <mxCell id="3fczbsxRmoHJEnEu84x_-178" value="Display&amp;nbsp;&lt;div&gt;&quot;Contact has been deleted.&quot;&lt;/div&gt;" style="html=1;overflow=block;blockSpacing=1;whiteSpace=wrap;shape=parallelogram;perimeter=parallelogramPerimeter;anchorPointDirection=0;fontSize=13;spacing=3.8;rounded=1;absoluteArcSize=1;arcSize=9;strokeWidth=NaN;lucidId=6RBhGlp7gwiF;" parent="WIyWlLk6GJQsqaUBKTNV-1" vertex="1">
          <mxGeometry x="1985" y="-1143.96" width="112" height="90.5" as="geometry" />
        </mxCell>
        <mxCell id="3fczbsxRmoHJEnEu84x_-179" value="" style="html=1;jettySize=18;whiteSpace=wrap;fontSize=13;strokeColor=#e81313;strokeOpacity=100;dashed=1;fixDash=1;strokeWidth=0.8;rounded=1;arcSize=12;edgeStyle=elbowEdgeStyle;startArrow=none;endArrow=block;endFill=1;exitX=0.5;exitY=1;lucidId=eRAhq2rj_irK;elbow=vertical;exitDx=0;exitDy=0;entryX=0.609;entryY=-0.031;entryDx=0;entryDy=0;entryPerimeter=0;" parent="WIyWlLk6GJQsqaUBKTNV-1" source="3fczbsxRmoHJEnEu84x_-175" target="3fczbsxRmoHJEnEu84x_-181" edge="1">
          <mxGeometry width="100" height="100" relative="1" as="geometry">
            <mxPoint x="1535" y="-1000.71" as="sourcePoint" />
            <mxPoint x="1645" y="-980.71" as="targetPoint" />
          </mxGeometry>
        </mxCell>
        <mxCell id="3fczbsxRmoHJEnEu84x_-180" value="No" style="text;html=1;resizable=0;labelBackgroundColor=default;align=center;verticalAlign=middle;fontColor=#3a414a;fontSize=13;" parent="3fczbsxRmoHJEnEu84x_-179" vertex="1">
          <mxGeometry relative="1" as="geometry" />
        </mxCell>
        <mxCell id="3fczbsxRmoHJEnEu84x_-181" value="Display&lt;div&gt;&amp;nbsp;&quot;Contact not Found&quot;&lt;/div&gt;" style="html=1;overflow=block;blockSpacing=1;whiteSpace=wrap;shape=parallelogram;perimeter=parallelogramPerimeter;anchorPointDirection=0;fontSize=13;spacing=3.8;rounded=1;absoluteArcSize=1;arcSize=9;strokeWidth=NaN;lucidId=6RBhGlp7gwiF;" parent="WIyWlLk6GJQsqaUBKTNV-1" vertex="1">
          <mxGeometry x="1651.5" y="-990.71" width="120" height="100.5" as="geometry" />
        </mxCell>
        <mxCell id="3fczbsxRmoHJEnEu84x_-182" value="Delete nameInserted from phoneBook" style="html=1;overflow=block;blockSpacing=1;whiteSpace=wrap;fontSize=13;spacing=9;rounded=1;absoluteArcSize=1;arcSize=9;strokeWidth=NaN;lucidId=BWBh74a_5Ecy;" parent="WIyWlLk6GJQsqaUBKTNV-1" vertex="1">
          <mxGeometry x="1755" y="-1138.71" width="152" height="81" as="geometry" />
        </mxCell>
        <mxCell id="3fczbsxRmoHJEnEu84x_-183" value="" style="html=1;jettySize=18;whiteSpace=wrap;fontSize=13;strokeColor=#3a414a;strokeOpacity=100;strokeWidth=0.8;rounded=1;arcSize=12;edgeStyle=orthogonalEdgeStyle;startArrow=none;endArrow=block;endFill=1;lucidId=KXAh2Hc~4Bh_;exitX=1;exitY=0.5;exitDx=0;exitDy=0;" parent="WIyWlLk6GJQsqaUBKTNV-1" source="3fczbsxRmoHJEnEu84x_-182" target="3fczbsxRmoHJEnEu84x_-178" edge="1">
          <mxGeometry width="100" height="100" relative="1" as="geometry">
            <Array as="points" />
            <mxPoint x="1925" y="-1099.38" as="sourcePoint" />
            <mxPoint x="2026" y="-1099.38" as="targetPoint" />
          </mxGeometry>
        </mxCell>
        <mxCell id="3fczbsxRmoHJEnEu84x_-184" value="&lt;span style=&quot;font-size: 13px;&quot;&gt;Enter name to update&lt;/span&gt;" style="html=1;overflow=block;blockSpacing=1;whiteSpace=wrap;shape=parallelogram;perimeter=parallelogramPerimeter;anchorPointDirection=0;fontSize=16.7;spacing=3.8;rounded=1;absoluteArcSize=1;arcSize=9;strokeWidth=NaN;lucidId=1UBheFtj..Al;" parent="WIyWlLk6GJQsqaUBKTNV-1" vertex="1">
          <mxGeometry x="980" y="-708.71" width="130" height="101" as="geometry" />
        </mxCell>
        <mxCell id="3fczbsxRmoHJEnEu84x_-185" value="" style="html=1;jettySize=18;whiteSpace=wrap;fontSize=13;strokeColor=#3a414a;strokeOpacity=100;strokeWidth=0.8;rounded=1;arcSize=12;edgeStyle=orthogonalEdgeStyle;startArrow=none;endArrow=block;endFill=1;lucidId=KXAh2Hc~4Bh_;entryX=0;entryY=0.5;entryDx=0;entryDy=0;exitX=1;exitY=0.5;exitDx=0;exitDy=0;" parent="WIyWlLk6GJQsqaUBKTNV-1" source="3fczbsxRmoHJEnEu84x_-144" target="3fczbsxRmoHJEnEu84x_-184" edge="1">
          <mxGeometry width="100" height="100" relative="1" as="geometry">
            <Array as="points" />
            <mxPoint x="940" y="-658.75" as="sourcePoint" />
            <mxPoint x="1026" y="-658.1600000000001" as="targetPoint" />
          </mxGeometry>
        </mxCell>
        <mxCell id="3fczbsxRmoHJEnEu84x_-188" value="" style="html=1;jettySize=18;whiteSpace=wrap;fontSize=13;strokeColor=#3a414a;strokeOpacity=100;strokeWidth=0.8;rounded=1;arcSize=12;edgeStyle=orthogonalEdgeStyle;startArrow=none;endArrow=block;endFill=1;lucidId=KXAh2Hc~4Bh_;entryX=0;entryY=0.5;entryDx=0;entryDy=0;exitX=1;exitY=0.5;exitDx=0;exitDy=0;" parent="WIyWlLk6GJQsqaUBKTNV-1" source="3fczbsxRmoHJEnEu84x_-184" target="3fczbsxRmoHJEnEu84x_-189" edge="1">
          <mxGeometry width="100" height="100" relative="1" as="geometry">
            <Array as="points" />
            <mxPoint x="1332" y="-758.71" as="sourcePoint" />
            <mxPoint x="1395" y="-758.710000000001" as="targetPoint" />
          </mxGeometry>
        </mxCell>
        <mxCell id="3fczbsxRmoHJEnEu84x_-189" value="for&lt;div&gt;(i=0; i&amp;lt;=contacts in phoneBook; i++)&lt;/div&gt;" style="html=1;overflow=block;blockSpacing=1;whiteSpace=wrap;fontSize=13;spacing=9;rounded=1;absoluteArcSize=1;arcSize=9;strokeWidth=NaN;lucidId=BWBh74a_5Ecy;" parent="WIyWlLk6GJQsqaUBKTNV-1" vertex="1">
          <mxGeometry x="1221.5" y="-698.71" width="152" height="81" as="geometry" />
        </mxCell>
        <mxCell id="3fczbsxRmoHJEnEu84x_-190" value="" style="html=1;jettySize=18;whiteSpace=wrap;fontSize=13;strokeColor=#3a414a;strokeOpacity=100;strokeWidth=0.8;rounded=1;arcSize=12;edgeStyle=orthogonalEdgeStyle;startArrow=none;endArrow=block;endFill=1;lucidId=KXAh2Hc~4Bh_;exitX=1;exitY=0.5;exitDx=0;exitDy=0;entryX=0;entryY=0.5;entryDx=0;entryDy=0;" parent="WIyWlLk6GJQsqaUBKTNV-1" source="3fczbsxRmoHJEnEu84x_-189" target="3fczbsxRmoHJEnEu84x_-191" edge="1">
          <mxGeometry width="100" height="100" relative="1" as="geometry">
            <Array as="points" />
            <mxPoint x="1421.5" y="-658.21" as="sourcePoint" />
            <mxPoint x="1471.5" y="-658.21" as="targetPoint" />
          </mxGeometry>
        </mxCell>
        <mxCell id="3fczbsxRmoHJEnEu84x_-191" value="&lt;span style=&quot;font-size: 10px;&quot;&gt;if&lt;/span&gt;&lt;div&gt;&lt;span style=&quot;font-size: 10px;&quot;&gt;(nameInserted==nameInPhoneBook) then&lt;/span&gt;&lt;/div&gt;" style="html=1;overflow=block;blockSpacing=1;whiteSpace=wrap;rhombus;fontSize=13;spacing=3.8;rounded=1;absoluteArcSize=1;arcSize=9;strokeWidth=NaN;lucidId=eRAhl8F1_OAq;" parent="WIyWlLk6GJQsqaUBKTNV-1" vertex="1">
          <mxGeometry x="1481.5" y="-718.21" width="190" height="120" as="geometry" />
        </mxCell>
        <mxCell id="3fczbsxRmoHJEnEu84x_-192" value="" style="html=1;jettySize=18;whiteSpace=wrap;fontSize=13;strokeColor=#008a0e;strokeOpacity=100;strokeWidth=0.8;rounded=1;arcSize=12;edgeStyle=orthogonalEdgeStyle;startArrow=none;endArrow=block;endFill=1;lucidId=eRAhjgdg4Sg9;exitX=1;exitY=0.5;exitDx=0;exitDy=0;" parent="WIyWlLk6GJQsqaUBKTNV-1" edge="1">
          <mxGeometry width="100" height="100" relative="1" as="geometry">
            <Array as="points" />
            <mxPoint x="1671.5" y="-658.8299999999999" as="sourcePoint" />
            <mxPoint x="1791.5" y="-658.21" as="targetPoint" />
          </mxGeometry>
        </mxCell>
        <mxCell id="3fczbsxRmoHJEnEu84x_-193" value="Yes" style="text;html=1;resizable=0;labelBackgroundColor=default;align=center;verticalAlign=middle;fontColor=#3a414a;fontSize=13;" parent="3fczbsxRmoHJEnEu84x_-192" vertex="1">
          <mxGeometry relative="1" as="geometry" />
        </mxCell>
        <mxCell id="3fczbsxRmoHJEnEu84x_-194" value="&lt;div&gt;Display&amp;nbsp;&lt;/div&gt;&lt;div&gt;&quot;Contact&amp;nbsp;&lt;/div&gt;&lt;div&gt;updated successfully.&quot;&lt;br&gt;&lt;/div&gt;" style="html=1;overflow=block;blockSpacing=1;whiteSpace=wrap;shape=parallelogram;perimeter=parallelogramPerimeter;anchorPointDirection=0;fontSize=13;spacing=3.8;rounded=1;absoluteArcSize=1;arcSize=9;strokeWidth=NaN;lucidId=6RBhGlp7gwiF;" parent="WIyWlLk6GJQsqaUBKTNV-1" vertex="1">
          <mxGeometry x="2021.5" y="-703.46" width="112" height="90.5" as="geometry" />
        </mxCell>
        <mxCell id="3fczbsxRmoHJEnEu84x_-195" value="" style="html=1;jettySize=18;whiteSpace=wrap;fontSize=13;strokeColor=#e81313;strokeOpacity=100;dashed=1;fixDash=1;strokeWidth=0.8;rounded=1;arcSize=12;edgeStyle=elbowEdgeStyle;startArrow=none;endArrow=block;endFill=1;exitX=0.5;exitY=1;lucidId=eRAhq2rj_irK;elbow=vertical;exitDx=0;exitDy=0;entryX=0.609;entryY=-0.031;entryDx=0;entryDy=0;entryPerimeter=0;" parent="WIyWlLk6GJQsqaUBKTNV-1" source="3fczbsxRmoHJEnEu84x_-191" target="3fczbsxRmoHJEnEu84x_-197" edge="1">
          <mxGeometry width="100" height="100" relative="1" as="geometry">
            <mxPoint x="1571.5" y="-560.21" as="sourcePoint" />
            <mxPoint x="1681.5" y="-540.21" as="targetPoint" />
          </mxGeometry>
        </mxCell>
        <mxCell id="3fczbsxRmoHJEnEu84x_-196" value="No" style="text;html=1;resizable=0;labelBackgroundColor=default;align=center;verticalAlign=middle;fontColor=#3a414a;fontSize=13;" parent="3fczbsxRmoHJEnEu84x_-195" vertex="1">
          <mxGeometry relative="1" as="geometry" />
        </mxCell>
        <mxCell id="3fczbsxRmoHJEnEu84x_-197" value="Display&amp;nbsp;&lt;div&gt;&quot;Contact not Found&quot;&lt;br&gt;&lt;/div&gt;" style="html=1;overflow=block;blockSpacing=1;whiteSpace=wrap;shape=parallelogram;perimeter=parallelogramPerimeter;anchorPointDirection=0;fontSize=13;spacing=3.8;rounded=1;absoluteArcSize=1;arcSize=9;strokeWidth=NaN;lucidId=6RBhGlp7gwiF;" parent="WIyWlLk6GJQsqaUBKTNV-1" vertex="1">
          <mxGeometry x="1688" y="-550.21" width="120" height="100.5" as="geometry" />
        </mxCell>
        <mxCell id="3fczbsxRmoHJEnEu84x_-198" value="Update contact" style="html=1;overflow=block;blockSpacing=1;whiteSpace=wrap;fontSize=13;spacing=9;rounded=1;absoluteArcSize=1;arcSize=9;strokeWidth=NaN;lucidId=BWBh74a_5Ecy;" parent="WIyWlLk6GJQsqaUBKTNV-1" vertex="1">
          <mxGeometry x="1791.5" y="-698.21" width="152" height="81" as="geometry" />
        </mxCell>
        <mxCell id="3fczbsxRmoHJEnEu84x_-199" value="" style="html=1;jettySize=18;whiteSpace=wrap;fontSize=13;strokeColor=#3a414a;strokeOpacity=100;strokeWidth=0.8;rounded=1;arcSize=12;edgeStyle=orthogonalEdgeStyle;startArrow=none;endArrow=block;endFill=1;lucidId=KXAh2Hc~4Bh_;exitX=1;exitY=0.5;exitDx=0;exitDy=0;" parent="WIyWlLk6GJQsqaUBKTNV-1" source="3fczbsxRmoHJEnEu84x_-198" target="3fczbsxRmoHJEnEu84x_-194" edge="1">
          <mxGeometry width="100" height="100" relative="1" as="geometry">
            <Array as="points" />
            <mxPoint x="1961.5" y="-658.8800000000001" as="sourcePoint" />
            <mxPoint x="2062.5" y="-658.8800000000001" as="targetPoint" />
          </mxGeometry>
        </mxCell>
        <mxCell id="3fczbsxRmoHJEnEu84x_-201" value="&lt;span style=&quot;font-size: 12px;&quot;&gt;if&lt;/span&gt;&lt;div&gt;&lt;span style=&quot;font-size: 12px;&quot;&gt;(phoneBook==empty)&amp;nbsp;&lt;/span&gt;&lt;div&gt;&lt;span style=&quot;font-size: 12px;&quot;&gt;then&lt;/span&gt;&lt;br&gt;&lt;/div&gt;&lt;/div&gt;" style="html=1;overflow=block;blockSpacing=1;whiteSpace=wrap;rhombus;fontSize=13;spacing=3.8;rounded=1;absoluteArcSize=1;arcSize=9;strokeWidth=NaN;lucidId=eRAhl8F1_OAq;" parent="WIyWlLk6GJQsqaUBKTNV-1" vertex="1">
          <mxGeometry x="733" y="-447.21000000000004" width="240" height="120" as="geometry" />
        </mxCell>
        <mxCell id="3fczbsxRmoHJEnEu84x_-202" value="" style="html=1;jettySize=18;whiteSpace=wrap;fontSize=13;strokeColor=#008a0e;strokeOpacity=100;strokeWidth=0.8;rounded=1;arcSize=12;edgeStyle=orthogonalEdgeStyle;startArrow=none;endArrow=block;endFill=1;lucidId=eRAhjgdg4Sg9;exitX=1;exitY=0.5;exitDx=0;exitDy=0;entryX=0;entryY=0.5;entryDx=0;entryDy=0;" parent="WIyWlLk6GJQsqaUBKTNV-1" source="3fczbsxRmoHJEnEu84x_-201" target="3fczbsxRmoHJEnEu84x_-204" edge="1">
          <mxGeometry width="100" height="100" relative="1" as="geometry">
            <Array as="points" />
            <mxPoint x="1013" y="-387.21000000000004" as="sourcePoint" />
            <mxPoint x="1113" y="-388.21000000000004" as="targetPoint" />
          </mxGeometry>
        </mxCell>
        <mxCell id="3fczbsxRmoHJEnEu84x_-203" value="Yes" style="text;html=1;resizable=0;labelBackgroundColor=default;align=center;verticalAlign=middle;fontColor=#3a414a;fontSize=13;" parent="3fczbsxRmoHJEnEu84x_-202" vertex="1">
          <mxGeometry relative="1" as="geometry" />
        </mxCell>
        <mxCell id="3fczbsxRmoHJEnEu84x_-204" value="Display &quot;Phonebook is empty&quot;" style="html=1;overflow=block;blockSpacing=1;whiteSpace=wrap;shape=parallelogram;perimeter=parallelogramPerimeter;anchorPointDirection=0;fontSize=13;spacing=3.8;rounded=1;absoluteArcSize=1;arcSize=9;strokeWidth=NaN;lucidId=6RBhGlp7gwiF;" parent="WIyWlLk6GJQsqaUBKTNV-1" vertex="1">
          <mxGeometry x="1123" y="-432.46000000000004" width="112" height="90.5" as="geometry" />
        </mxCell>
        <mxCell id="3fczbsxRmoHJEnEu84x_-205" value="" style="html=1;jettySize=18;whiteSpace=wrap;fontSize=13;strokeColor=#e81313;strokeOpacity=100;dashed=1;fixDash=1;strokeWidth=0.8;rounded=1;arcSize=12;edgeStyle=elbowEdgeStyle;startArrow=none;endArrow=block;endFill=1;exitX=0.5;exitY=0.993;exitPerimeter=0;lucidId=eRAhq2rj_irK;elbow=vertical;entryX=0.5;entryY=0;entryDx=0;entryDy=0;" parent="WIyWlLk6GJQsqaUBKTNV-1" target="3fczbsxRmoHJEnEu84x_-80" edge="1">
          <mxGeometry width="100" height="100" relative="1" as="geometry">
            <mxPoint x="852.3800000000001" y="-327.21000000000004" as="sourcePoint" />
            <mxPoint x="853" y="-178.71000000000004" as="targetPoint" />
          </mxGeometry>
        </mxCell>
        <mxCell id="3fczbsxRmoHJEnEu84x_-206" value="No" style="text;html=1;resizable=0;labelBackgroundColor=default;align=center;verticalAlign=middle;fontColor=#3a414a;fontSize=13;" parent="3fczbsxRmoHJEnEu84x_-205" vertex="1">
          <mxGeometry relative="1" as="geometry" />
        </mxCell>
        <mxCell id="3fczbsxRmoHJEnEu84x_-208" value="" style="html=1;jettySize=18;whiteSpace=wrap;fontSize=13;strokeColor=#008a0e;strokeOpacity=100;strokeWidth=0.8;rounded=1;arcSize=12;edgeStyle=orthogonalEdgeStyle;startArrow=none;endArrow=block;endFill=1;exitX=1;exitY=0.5;lucidId=eRAhgrudIFUt;entryX=0;entryY=0.5;entryDx=0;entryDy=0;exitDx=0;exitDy=0;" parent="WIyWlLk6GJQsqaUBKTNV-1" source="3fczbsxRmoHJEnEu84x_-79" target="3fczbsxRmoHJEnEu84x_-201" edge="1">
          <mxGeometry width="100" height="100" relative="1" as="geometry">
            <Array as="points" />
            <mxPoint x="605" y="-388.03999999999996" as="sourcePoint" />
            <mxPoint x="785" y="-388.03999999999996" as="targetPoint" />
          </mxGeometry>
        </mxCell>
        <mxCell id="3fczbsxRmoHJEnEu84x_-209" value="Yes" style="text;html=1;resizable=0;labelBackgroundColor=default;align=center;verticalAlign=middle;fontColor=#3a414a;fontSize=13;" parent="3fczbsxRmoHJEnEu84x_-208" vertex="1">
          <mxGeometry relative="1" as="geometry" />
        </mxCell>
        <mxCell id="3fczbsxRmoHJEnEu84x_-210" value="" style="html=1;jettySize=18;whiteSpace=wrap;fontSize=13;strokeColor=#3a414a;strokeOpacity=100;strokeWidth=0.8;rounded=1;arcSize=12;startArrow=none;endArrow=block;endFill=1;lucidId=eRAhbJlBrYZg;elbow=vertical;entryX=1;entryY=0.5;entryDx=0;entryDy=0;" parent="WIyWlLk6GJQsqaUBKTNV-1" target="3fczbsxRmoHJEnEu84x_-82" edge="1">
          <mxGeometry width="100" height="100" relative="1" as="geometry">
            <Array as="points" />
            <mxPoint x="2310" y="112.28999999999996" as="sourcePoint" />
            <mxPoint x="2030" y="122.28999999999996" as="targetPoint" />
          </mxGeometry>
        </mxCell>
        <mxCell id="3fczbsxRmoHJEnEu84x_-211" value="" style="html=1;jettySize=18;whiteSpace=wrap;fontSize=13;strokeColor=#3a414a;strokeOpacity=100;strokeWidth=0.8;rounded=1;arcSize=12;startArrow=none;endArrow=none;endFill=0;lucidId=eRAhbJlBrYZg;elbow=vertical;" parent="WIyWlLk6GJQsqaUBKTNV-1" edge="1">
          <mxGeometry width="100" height="100" relative="1" as="geometry">
            <Array as="points">
              <mxPoint x="2310" y="-658.21" />
            </Array>
            <mxPoint x="2310" y="-1968.71" as="sourcePoint" />
            <mxPoint x="2310" y="111.28999999999996" as="targetPoint" />
          </mxGeometry>
        </mxCell>
        <mxCell id="3fczbsxRmoHJEnEu84x_-212" value="" style="html=1;jettySize=18;whiteSpace=wrap;fontSize=13;strokeOpacity=100;strokeWidth=0.8;rounded=1;arcSize=12;edgeStyle=orthogonalEdgeStyle;startArrow=none;endArrow=classic;endFill=1;lucidId=UWBhq2eKNjBZ;exitX=1;exitY=0.5;exitDx=0;exitDy=0;" parent="WIyWlLk6GJQsqaUBKTNV-1" source="3fczbsxRmoHJEnEu84x_-137" edge="1">
          <mxGeometry width="100" height="100" relative="1" as="geometry">
            <Array as="points" />
            <mxPoint x="2130" y="-1969.3000000000002" as="sourcePoint" />
            <mxPoint x="2310" y="-1968.71" as="targetPoint" />
          </mxGeometry>
        </mxCell>
        <mxCell id="3fczbsxRmoHJEnEu84x_-213" value="" style="html=1;jettySize=18;whiteSpace=wrap;fontSize=13;strokeOpacity=100;strokeWidth=0.8;rounded=1;arcSize=12;edgeStyle=orthogonalEdgeStyle;startArrow=none;endArrow=classic;endFill=1;lucidId=UWBhq2eKNjBZ;exitX=1;exitY=0.5;exitDx=0;exitDy=0;" parent="WIyWlLk6GJQsqaUBKTNV-1" source="3fczbsxRmoHJEnEu84x_-154" edge="1">
          <mxGeometry width="100" height="100" relative="1" as="geometry">
            <Array as="points" />
            <mxPoint x="2021.5" y="-1688.71" as="sourcePoint" />
            <mxPoint x="2310" y="-1698.71" as="targetPoint" />
          </mxGeometry>
        </mxCell>
        <mxCell id="3fczbsxRmoHJEnEu84x_-214" value="" style="html=1;jettySize=18;whiteSpace=wrap;fontSize=13;strokeOpacity=100;strokeWidth=0.8;rounded=1;arcSize=12;edgeStyle=orthogonalEdgeStyle;startArrow=none;endArrow=classic;endFill=1;lucidId=UWBhq2eKNjBZ;exitX=1;exitY=0.5;exitDx=0;exitDy=0;" parent="WIyWlLk6GJQsqaUBKTNV-1" source="3fczbsxRmoHJEnEu84x_-162" edge="1">
          <mxGeometry width="100" height="100" relative="1" as="geometry">
            <Array as="points" />
            <mxPoint x="1763" y="-1408.71" as="sourcePoint" />
            <mxPoint x="2310" y="-1426.71" as="targetPoint" />
          </mxGeometry>
        </mxCell>
        <mxCell id="3fczbsxRmoHJEnEu84x_-215" value="" style="html=1;jettySize=18;whiteSpace=wrap;fontSize=13;strokeOpacity=100;strokeWidth=0.8;rounded=1;arcSize=12;edgeStyle=orthogonalEdgeStyle;startArrow=none;endArrow=classic;endFill=1;lucidId=UWBhq2eKNjBZ;exitX=1;exitY=0.5;exitDx=0;exitDy=0;" parent="WIyWlLk6GJQsqaUBKTNV-1" source="3fczbsxRmoHJEnEu84x_-178" edge="1">
          <mxGeometry width="100" height="100" relative="1" as="geometry">
            <Array as="points" />
            <mxPoint x="2130" y="-1098.8000000000002" as="sourcePoint" />
            <mxPoint x="2310" y="-1098.71" as="targetPoint" />
          </mxGeometry>
        </mxCell>
        <mxCell id="3fczbsxRmoHJEnEu84x_-216" value="" style="html=1;jettySize=18;whiteSpace=wrap;fontSize=13;strokeOpacity=100;strokeWidth=0.8;rounded=1;arcSize=12;edgeStyle=orthogonalEdgeStyle;startArrow=none;endArrow=classic;endFill=1;lucidId=UWBhq2eKNjBZ;exitX=1;exitY=0.5;exitDx=0;exitDy=0;" parent="WIyWlLk6GJQsqaUBKTNV-1" source="3fczbsxRmoHJEnEu84x_-194" edge="1">
          <mxGeometry width="100" height="100" relative="1" as="geometry">
            <Array as="points" />
            <mxPoint x="2190" y="-658.8" as="sourcePoint" />
            <mxPoint x="2310" y="-658.71" as="targetPoint" />
          </mxGeometry>
        </mxCell>
        <mxCell id="3fczbsxRmoHJEnEu84x_-217" value="" style="html=1;jettySize=18;whiteSpace=wrap;fontSize=13;strokeOpacity=100;strokeWidth=0.8;rounded=1;arcSize=12;edgeStyle=orthogonalEdgeStyle;startArrow=none;endArrow=classic;endFill=1;lucidId=UWBhq2eKNjBZ;exitX=1;exitY=0.5;exitDx=0;exitDy=0;" parent="WIyWlLk6GJQsqaUBKTNV-1" source="3fczbsxRmoHJEnEu84x_-197" edge="1">
          <mxGeometry width="100" height="100" relative="1" as="geometry">
            <Array as="points" />
            <mxPoint x="1897" y="-487.71000000000004" as="sourcePoint" />
            <mxPoint x="2310" y="-499.71000000000004" as="targetPoint" />
          </mxGeometry>
        </mxCell>
        <mxCell id="3fczbsxRmoHJEnEu84x_-218" value="" style="html=1;jettySize=18;whiteSpace=wrap;fontSize=13;strokeOpacity=100;strokeWidth=0.8;rounded=1;arcSize=12;edgeStyle=orthogonalEdgeStyle;startArrow=none;endArrow=classic;endFill=1;lucidId=UWBhq2eKNjBZ;exitX=1;exitY=0.5;exitDx=0;exitDy=0;" parent="WIyWlLk6GJQsqaUBKTNV-1" source="3fczbsxRmoHJEnEu84x_-181" edge="1">
          <mxGeometry width="100" height="100" relative="1" as="geometry">
            <Array as="points" />
            <mxPoint x="1791.5" y="-928.71" as="sourcePoint" />
            <mxPoint x="2310" y="-938.71" as="targetPoint" />
          </mxGeometry>
        </mxCell>
        <mxCell id="3fczbsxRmoHJEnEu84x_-219" value="" style="html=1;jettySize=18;whiteSpace=wrap;fontSize=13;strokeOpacity=100;strokeWidth=0.8;rounded=1;arcSize=12;edgeStyle=orthogonalEdgeStyle;startArrow=none;endArrow=classic;endFill=1;lucidId=UWBhq2eKNjBZ;" parent="WIyWlLk6GJQsqaUBKTNV-1" source="3fczbsxRmoHJEnEu84x_-165" edge="1">
          <mxGeometry width="100" height="100" relative="1" as="geometry">
            <Array as="points" />
            <mxPoint x="1671.5" y="-1248.71" as="sourcePoint" />
            <mxPoint x="2310" y="-1268.71" as="targetPoint" />
          </mxGeometry>
        </mxCell>
        <mxCell id="3fczbsxRmoHJEnEu84x_-220" value="" style="html=1;jettySize=18;whiteSpace=wrap;fontSize=13;strokeOpacity=100;strokeWidth=0.8;rounded=1;arcSize=12;edgeStyle=orthogonalEdgeStyle;startArrow=none;endArrow=classic;endFill=1;lucidId=UWBhq2eKNjBZ;exitX=1;exitY=0.5;exitDx=0;exitDy=0;" parent="WIyWlLk6GJQsqaUBKTNV-1" source="3fczbsxRmoHJEnEu84x_-157" edge="1">
          <mxGeometry width="100" height="100" relative="1" as="geometry">
            <Array as="points" />
            <mxPoint x="1930" y="-1528.71" as="sourcePoint" />
            <mxPoint x="2310" y="-1536.71" as="targetPoint" />
          </mxGeometry>
        </mxCell>
        <mxCell id="3fczbsxRmoHJEnEu84x_-221" value="" style="html=1;jettySize=18;whiteSpace=wrap;fontSize=13;strokeOpacity=100;strokeWidth=0.8;rounded=1;arcSize=12;edgeStyle=orthogonalEdgeStyle;startArrow=none;endArrow=classic;endFill=1;lucidId=UWBhq2eKNjBZ;exitX=1;exitY=0.5;exitDx=0;exitDy=0;" parent="WIyWlLk6GJQsqaUBKTNV-1" source="3fczbsxRmoHJEnEu84x_-204" edge="1">
          <mxGeometry width="100" height="100" relative="1" as="geometry">
            <Array as="points" />
            <mxPoint x="1280" y="-378.71000000000004" as="sourcePoint" />
            <mxPoint x="2310" y="-387.71000000000004" as="targetPoint" />
          </mxGeometry>
        </mxCell>
        <mxCell id="3fczbsxRmoHJEnEu84x_-222" value="" style="html=1;jettySize=18;whiteSpace=wrap;fontSize=13;strokeColor=#008a0e;strokeOpacity=100;strokeWidth=0.8;rounded=1;arcSize=12;edgeStyle=orthogonalEdgeStyle;startArrow=none;endArrow=block;endFill=1;exitX=0;exitY=0.5;lucidId=eRAhgrudIFUt;exitDx=0;exitDy=0;entryX=0;entryY=0.5;entryDx=0;entryDy=0;" parent="WIyWlLk6GJQsqaUBKTNV-1" source="3fczbsxRmoHJEnEu84x_-82" target="3fczbsxRmoHJEnEu84x_-129" edge="1">
          <mxGeometry width="100" height="100" relative="1" as="geometry">
            <Array as="points">
              <mxPoint x="260" y="112.28999999999996" />
              <mxPoint x="260" y="-2245.71" />
            </Array>
            <mxPoint x="360" y="1.2899999999999636" as="sourcePoint" />
            <mxPoint x="260" y="-2248.71" as="targetPoint" />
          </mxGeometry>
        </mxCell>
        <mxCell id="3fczbsxRmoHJEnEu84x_-223" value="Yes" style="text;html=1;resizable=0;labelBackgroundColor=default;align=center;verticalAlign=middle;fontColor=#3a414a;fontSize=13;" parent="3fczbsxRmoHJEnEu84x_-222" vertex="1">
          <mxGeometry relative="1" as="geometry" />
        </mxCell>
        <mxCell id="3fczbsxRmoHJEnEu84x_-224" value="Start" style="ellipse;whiteSpace=wrap;html=1;" parent="WIyWlLk6GJQsqaUBKTNV-1" vertex="1">
          <mxGeometry x="446" y="-3050" width="120" height="80" as="geometry" />
        </mxCell>
        <mxCell id="3fczbsxRmoHJEnEu84x_-225" value="End" style="ellipse;whiteSpace=wrap;html=1;" parent="WIyWlLk6GJQsqaUBKTNV-1" vertex="1">
          <mxGeometry x="436" y="331.28999999999996" width="120" height="80" as="geometry" />
        </mxCell>
        <mxCell id="y5VvffqHkxjjiTbIufkU-0" value="" style="html=1;jettySize=18;whiteSpace=wrap;fontSize=13;strokeColor=#e81313;strokeOpacity=100;dashed=1;fixDash=1;strokeWidth=0.8;rounded=1;arcSize=12;edgeStyle=orthogonalEdgeStyle;startArrow=none;endArrow=block;endFill=1;exitX=0.5;exitY=1;lucidId=eRAhIJ2NQqOq;exitDx=0;exitDy=0;" edge="1" parent="WIyWlLk6GJQsqaUBKTNV-1" source="3fczbsxRmoHJEnEu84x_-79" target="3fczbsxRmoHJEnEu84x_-82">
          <mxGeometry width="100" height="100" relative="1" as="geometry">
            <Array as="points" />
            <mxPoint x="500.33" y="-288.71000000000004" as="sourcePoint" />
            <mxPoint x="500.33" y="-136.71000000000004" as="targetPoint" />
          </mxGeometry>
        </mxCell>
        <mxCell id="y5VvffqHkxjjiTbIufkU-1" value="No" style="text;html=1;resizable=0;labelBackgroundColor=default;align=center;verticalAlign=middle;fontColor=#3a414a;fontSize=13;" vertex="1" parent="y5VvffqHkxjjiTbIufkU-0">
          <mxGeometry relative="1" as="geometry" />
        </mxCell>
      </root>
    </mxGraphModel>
  </diagram>
</mxfile>
